<svg width="16" height="21" viewBox="0 0 16 21" fill="none" xmlns="http://www.w3.org/2000/svg">
<path d="M5 14.0561H5.01M5 3.05611H3C2.46957 3.05611 1.96086 3.26682 1.58579 3.64189C1.21071 4.01697 1 4.52567 1 5.05611V17.0561C1 17.5865 1.21071 18.0952 1.58579 18.4703C1.96086 18.8454 2.46957 19.0561 3 19.0561H13C13.5304 19.0561 14.0391 18.8454 14.4142 18.4703C14.7893 18.0952 15 17.5865 15 17.0561V5.05611C15 4.52567 14.7893 4.01697 14.4142 3.64189C14.0391 3.26682 13.5304 3.05611 13 3.05611H11H5ZM5 3.05611C5 3.58654 5.21071 4.09525 5.58579 4.47032C5.96086 4.84539 6.46957 5.05611 7 5.05611H9C9.53043 5.05611 10.0391 4.84539 10.4142 4.47032C10.7893 4.09525 11 3.58654 11 3.05611H5ZM5 3.05611C5 2.52567 5.21071 2.01697 5.58579 1.64189C5.96086 1.26682 6.46957 1.05611 7 1.05611H9C9.53043 1.05611 10.0391 1.26682 10.4142 1.64189C10.7893 2.01697 11 2.52567 11 3.05611H5ZM8 10.0561H11H8ZM8 14.0561H11H8ZM5 10.0561H5.01H5Z" stroke="#CCCCCC" stroke-width="2" stroke-linecap="round" stroke-linejoin="round"/>
</svg>
