<svg width="14" height="16" viewBox="0 0 14 16" fill="none" xmlns="http://www.w3.org/2000/svg">
<path d="M7 0C5.4087 0 3.88258 0.632141 2.75736 1.75736C1.63214 2.88258 1 4.4087 1 6V9.586L0.293001 10.293C0.153191 10.4329 0.0579847 10.611 0.0194171 10.805C-0.0191505 10.9989 0.000652574 11.2 0.0763226 11.3827C0.151993 11.5654 0.280132 11.7215 0.444542 11.8314C0.608952 11.9413 0.80225 12 1 12H13C13.1978 12 13.391 11.9413 13.5555 11.8314C13.7199 11.7215 13.848 11.5654 13.9237 11.3827C13.9993 11.2 14.0192 10.9989 13.9806 10.805C13.942 10.611 13.8468 10.4329 13.707 10.293L13 9.586V6C13 4.4087 12.3679 2.88258 11.2426 1.75736C10.1174 0.632141 8.5913 0 7 0ZM7 16C6.20435 16 5.44129 15.6839 4.87868 15.1213C4.31607 14.5587 4 13.7956 4 13H10C10 13.7956 9.68393 14.5587 9.12132 15.1213C8.55871 15.6839 7.79565 16 7 16Z" fill="#FFAD47"/>
</svg>
