<svg width="13" height="4" viewBox="0 0 13 4" fill="none" xmlns="http://www.w3.org/2000/svg">
<path fill-rule="evenodd" clip-rule="evenodd" d="M0.10736 2.26667C0.10736 1.41413 0.736758 0.722221 1.51227 0.722221C2.28778 0.722221 2.91717 1.41413 2.91717 2.26667C2.91717 3.1192 2.28778 3.81111 1.51227 3.81111C0.736758 3.81111 0.10736 3.1192 0.10736 2.26667ZM6.42944 0.722221C5.65393 0.722221 5.02454 1.41413 5.02454 2.26667C5.02454 3.1192 5.65393 3.81111 6.42944 3.81111C7.20495 3.81111 7.83435 3.1192 7.83435 2.26667C7.83435 1.41413 7.20495 0.722221 6.42944 0.722221ZM11.3466 0.722221C10.5711 0.722221 9.94171 1.41413 9.94171 2.26667C9.94171 3.1192 10.5711 3.81111 11.3466 3.81111C12.1221 3.81111 12.7515 3.1192 12.7515 2.26667C12.7515 1.41413 12.1221 0.722221 11.3466 0.722221Z" fill="black"/>
</svg>
