<svg width="21" height="21" viewBox="0 0 21 21" fill="none" xmlns="http://www.w3.org/2000/svg">
<path d="M1.242 3.16475C1.242 2.63432 1.45272 2.12561 1.82779 1.75054C2.20286 1.37546 2.71157 1.16475 3.242 1.16475H6.522C6.7318 1.16491 6.93623 1.23105 7.10636 1.3538C7.27649 1.47655 7.40371 1.64971 7.47 1.84875L8.968 6.34175C9.04391 6.57009 9.03493 6.81814 8.94272 7.04039C8.85051 7.26265 8.68126 7.4442 8.466 7.55175L6.209 8.68175C7.31532 11.1303 9.27647 13.0914 11.725 14.1978L12.855 11.9407C12.9626 11.7255 13.1441 11.5562 13.3664 11.464C13.5886 11.3718 13.8367 11.3628 14.065 11.4387L18.558 12.9367C18.7572 13.0031 18.9305 13.1305 19.0532 13.3008C19.176 13.4711 19.2421 13.6758 19.242 13.8857V17.1647C19.242 17.6952 19.0313 18.2039 18.6562 18.579C18.2811 18.954 17.7724 19.1647 17.242 19.1647H16.242C7.958 19.1647 1.242 12.4487 1.242 4.16475V3.16475Z" stroke="#CCCCCC" stroke-width="2" stroke-linecap="round" stroke-linejoin="round"/>
</svg>
