<svg width="22" height="19" viewBox="0 0 22 19" fill="none" xmlns="http://www.w3.org/2000/svg">
<path d="M16 17.1922H21V15.1922C21 14.5688 20.8057 13.9608 20.4441 13.4529C20.0826 12.9449 19.5718 12.5622 18.9827 12.358C18.3937 12.1538 17.7556 12.1381 17.1573 12.3133C16.5589 12.4884 16.03 12.8456 15.644 13.3352L16 17.1922ZM16 17.1922H6H16ZM16 17.1922V15.1922C16 14.5362 15.874 13.9092 15.644 13.3352L16 17.1922ZM6 17.1922H1V15.1922C1.00005 14.5688 1.19434 13.9608 1.55586 13.4529C1.91739 12.9449 2.42819 12.5622 3.01725 12.358C3.60632 12.1538 4.24438 12.1381 4.84274 12.3133C5.4411 12.4884 5.97003 12.8456 6.356 13.3352L6 17.1922ZM6 17.1922V15.1922C6 14.5362 6.126 13.9092 6.356 13.3352L6 17.1922ZM6.356 13.3352C6.72736 12.4072 7.36825 11.6117 8.196 11.0514C9.02376 10.491 10.0004 10.1915 11 10.1915C11.9996 10.1915 12.9762 10.491 13.804 11.0514C14.6318 11.6117 15.2726 12.4072 15.644 13.3352H6.356ZM14 4.19225C14 4.98789 13.6839 5.75096 13.1213 6.31357C12.5587 6.87618 11.7956 7.19225 11 7.19225C10.2044 7.19225 9.44129 6.87618 8.87868 6.31357C8.31607 5.75096 8 4.98789 8 4.19225C8 3.3966 8.31607 2.63353 8.87868 2.07093C9.44129 1.50832 10.2044 1.19225 11 1.19225C11.7956 1.19225 12.5587 1.50832 13.1213 2.07093C13.6839 2.63353 14 3.3966 14 4.19225V4.19225ZM20 7.19225C20 7.72268 19.7893 8.23139 19.4142 8.60646C19.0391 8.98153 18.5304 9.19225 18 9.19225C17.4696 9.19225 16.9609 8.98153 16.5858 8.60646C16.2107 8.23139 16 7.72268 16 7.19225C16 6.66181 16.2107 6.15311 16.5858 5.77803C16.9609 5.40296 17.4696 5.19225 18 5.19225C18.5304 5.19225 19.0391 5.40296 19.4142 5.77803C19.7893 6.15311 20 6.66181 20 7.19225ZM6 7.19225C6 7.72268 5.78929 8.23139 5.41421 8.60646C5.03914 8.98153 4.53043 9.19225 4 9.19225C3.46957 9.19225 2.96086 8.98153 2.58579 8.60646C2.21071 8.23139 2 7.72268 2 7.19225C2 6.66181 2.21071 6.15311 2.58579 5.77803C2.96086 5.40296 3.46957 5.19225 4 5.19225C4.53043 5.19225 5.03914 5.40296 5.41421 5.77803C5.78929 6.15311 6 6.66181 6 7.19225Z" stroke="#CCCCCC" stroke-width="2" stroke-linecap="round" stroke-linejoin="round"/>
</svg>
