<svg width="20" height="20" viewBox="0 0 20 20" fill="none" xmlns="http://www.w3.org/2000/svg">
<path d="M3.50002 0.899994C2.81046 0.899994 2.14914 1.17392 1.66155 1.66152C1.17395 2.14911 0.900024 2.81043 0.900024 3.49999V6.09999C0.900024 6.78956 1.17395 7.45088 1.66155 7.93847C2.14914 8.42607 2.81046 8.69999 3.50002 8.69999H6.10002C6.78959 8.69999 7.45091 8.42607 7.9385 7.93847C8.4261 7.45088 8.70002 6.78956 8.70002 6.09999V3.49999C8.70002 2.81043 8.4261 2.14911 7.9385 1.66152C7.45091 1.17392 6.78959 0.899994 6.10002 0.899994H3.50002ZM3.50002 11.3C2.81046 11.3 2.14914 11.5739 1.66155 12.0615C1.17395 12.5491 0.900024 13.2104 0.900024 13.9V16.5C0.900024 17.1896 1.17395 17.8509 1.66155 18.3385C2.14914 18.8261 2.81046 19.1 3.50002 19.1H6.10002C6.78959 19.1 7.45091 18.8261 7.9385 18.3385C8.4261 17.8509 8.70002 17.1896 8.70002 16.5V13.9C8.70002 13.2104 8.4261 12.5491 7.9385 12.0615C7.45091 11.5739 6.78959 11.3 6.10002 11.3H3.50002ZM11.3 3.49999C11.3 2.81043 11.574 2.14911 12.0615 1.66152C12.5491 1.17392 13.2105 0.899994 13.9 0.899994H16.5C17.1896 0.899994 17.8509 1.17392 18.3385 1.66152C18.8261 2.14911 19.1 2.81043 19.1 3.49999V6.09999C19.1 6.78956 18.8261 7.45088 18.3385 7.93847C17.8509 8.42607 17.1896 8.69999 16.5 8.69999H13.9C13.2105 8.69999 12.5491 8.42607 12.0615 7.93847C11.574 7.45088 11.3 6.78956 11.3 6.09999V3.49999ZM11.3 13.9C11.3 13.2104 11.574 12.5491 12.0615 12.0615C12.5491 11.5739 13.2105 11.3 13.9 11.3H16.5C17.1896 11.3 17.8509 11.5739 18.3385 12.0615C18.8261 12.5491 19.1 13.2104 19.1 13.9V16.5C19.1 17.1896 18.8261 17.8509 18.3385 18.3385C17.8509 18.8261 17.1896 19.1 16.5 19.1H13.9C13.2105 19.1 12.5491 18.8261 12.0615 18.3385C11.574 17.8509 11.3 17.1896 11.3 16.5V13.9Z" fill="white"/>
</svg>
