<svg width="20" height="21" viewBox="0 0 20 21" fill="none" xmlns="http://www.w3.org/2000/svg">
<path d="M8 19.4808H12M17 19.4808V3.48077C17 2.95034 16.7893 2.44163 16.4142 2.06656C16.0391 1.69149 15.5304 1.48077 15 1.48077H5C4.46957 1.48077 3.96086 1.69149 3.58579 2.06656C3.21071 2.44163 3 2.95034 3 3.48077V19.4808H17ZM17 19.4808H19H17ZM17 19.4808H12H17ZM3 19.4808H1H3ZM3 19.4808H8H3ZM7 5.48077H8H7ZM7 9.48077H8H7ZM12 5.48077H13H12ZM12 9.48077H13H12ZM8 19.4808V14.4808C8 14.2156 8.10536 13.9612 8.29289 13.7737C8.48043 13.5861 8.73478 13.4808 9 13.4808H11C11.2652 13.4808 11.5196 13.5861 11.7071 13.7737C11.8946 13.9612 12 14.2156 12 14.4808V19.4808H8Z" stroke="#CCCCCC" stroke-width="2" stroke-linecap="round" stroke-linejoin="round"/>
</svg>
