<svg width="21" height="21" viewBox="0 0 21 21" fill="none" xmlns="http://www.w3.org/2000/svg">
<path d="M10.4307 3.1448C10.9682 2.5355 11.6784 2.10431 12.4669 1.9086C13.2555 1.71288 14.0849 1.76193 14.8449 2.0492C15.6048 2.33648 16.2593 2.84837 16.7212 3.51676C17.1831 4.18515 17.4305 4.97835 17.4305 5.7908C17.4305 6.60326 17.1831 7.39646 16.7212 8.06484C16.2593 8.73323 15.6048 9.24512 14.8449 9.5324C14.0849 9.81968 13.2555 9.86872 12.4669 9.67301C11.6784 9.4773 10.9682 9.0461 10.4307 8.4368V3.1448ZM13.4307 19.7908H1.43073V18.7908C1.43073 17.1995 2.06287 15.6734 3.18808 14.5482C4.3133 13.4229 5.83943 12.7908 7.43073 12.7908C9.02202 12.7908 10.5481 13.4229 11.6734 14.5482C12.7986 15.6734 13.4307 17.1995 13.4307 18.7908V19.7908ZM13.4307 19.7908H19.4307V18.7908C19.4309 17.7375 19.1537 16.7027 18.6272 15.7905C18.1006 14.8783 17.3432 14.1207 16.4311 13.594C15.519 13.0673 14.4842 12.79 13.4309 12.79C12.3776 12.7899 11.3429 13.0672 10.4307 13.5938L13.4307 19.7908ZM11.4307 5.7908C11.4307 6.85167 11.0093 7.86908 10.2592 8.61923C9.50901 9.36938 8.49159 9.7908 7.43073 9.7908C6.36986 9.7908 5.35244 9.36938 4.6023 8.61923C3.85215 7.86908 3.43073 6.85167 3.43073 5.7908C3.43073 4.72994 3.85215 3.71252 4.6023 2.96238C5.35244 2.21223 6.36986 1.7908 7.43073 1.7908C8.49159 1.7908 9.50901 2.21223 10.2592 2.96238C11.0093 3.71252 11.4307 4.72994 11.4307 5.7908V5.7908Z" stroke="#CCCCCC" stroke-width="2" stroke-linecap="round" stroke-linejoin="round"/>
</svg>
