<svg width="14" height="18" viewBox="0 0 14 18" fill="none" xmlns="http://www.w3.org/2000/svg">
<path fill-rule="evenodd" clip-rule="evenodd" d="M4 3C4 2.20435 4.31607 1.44129 4.87868 0.87868C5.44129 0.31607 6.20435 0 7 0C7.79565 0 8.55871 0.31607 9.12132 0.87868C9.68393 1.44129 10 2.20435 10 3V7C10 7.79565 9.68393 8.55871 9.12132 9.12132C8.55871 9.68393 7.79565 10 7 10C6.20435 10 5.44129 9.68393 4.87868 9.12132C4.31607 8.55871 4 7.79565 4 7V3ZM8 13.93C9.66621 13.6893 11.1899 12.8562 12.2918 11.5835C13.3938 10.3107 14.0002 8.68351 14 7C14 6.73478 13.8946 6.48043 13.7071 6.29289C13.5196 6.10536 13.2652 6 13 6C12.7348 6 12.4804 6.10536 12.2929 6.29289C12.1054 6.48043 12 6.73478 12 7C12 8.32608 11.4732 9.59785 10.5355 10.5355C9.59785 11.4732 8.32608 12 7 12C5.67392 12 4.40215 11.4732 3.46447 10.5355C2.52678 9.59785 2 8.32608 2 7C2 6.73478 1.89464 6.48043 1.70711 6.29289C1.51957 6.10536 1.26522 6 1 6C0.734784 6 0.48043 6.10536 0.292893 6.29289C0.105357 6.48043 6.19361e-08 6.73478 6.19361e-08 7C-0.000223762 8.68351 0.606201 10.3107 1.70815 11.5835C2.81011 12.8562 4.33379 13.6893 6 13.93V16H3C2.73478 16 2.48043 16.1054 2.29289 16.2929C2.10536 16.4804 2 16.7348 2 17C2 17.2652 2.10536 17.5196 2.29289 17.7071C2.48043 17.8946 2.73478 18 3 18H11C11.2652 18 11.5196 17.8946 11.7071 17.7071C11.8946 17.5196 12 17.2652 12 17C12 16.7348 11.8946 16.4804 11.7071 16.2929C11.5196 16.1054 11.2652 16 11 16H8V13.93Z" fill="#008AD8"/>
</svg>
